<?xml version="1.0" encoding="utf-8"?>
<!-- Generator: Adobe Illustrator 16.2.0, SVG Export Plug-In . SVG Version: 6.00 Build 0)  -->
<!DOCTYPE svg PUBLIC "-//W3C//DTD SVG 1.1//EN" "http://www.w3.org/Graphics/SVG/1.1/DTD/svg11.dtd">
<svg version="1.1" id="Capa_1" xmlns="http://www.w3.org/2000/svg" xmlns:xlink="http://www.w3.org/1999/xlink" x="0px" y="0px"
	 width="503.5px" height="70.389px" viewBox="-192.262 -27.061 503.5 70.389"
	 enable-background="new -192.262 -27.061 503.5 70.389" xml:space="preserve">
<path fill="#FFFFFF" d="M-117.05,11.611l2.044-3.808c0.342-0.597,1.166-0.497,1.47-0.273c0.173,0.102,3.296,2.512,6.159,2.512
	c1.737,0,2.999-1.153,2.999-2.734c0-1.929-1.521-3.384-4.473-4.628c-3.728-1.542-8.412-4.614-8.412-10.093
	c0-4.52,3.334-9.088,10.018-9.088c4.51,0,7.979,2.416,9.285,3.423c0.523,0.323,0.437,1.145,0.265,1.454l-2.218,3.52
	c-0.296,0.511-1.08,0.921-1.473,0.597c-0.392-0.222-3.555-2.735-6.204-2.735c-1.564,0-2.734,1.094-2.734,2.326
	c0,1.692,1.299,2.972,4.725,4.434c3.392,1.412,8.775,4.211,8.775,10.417c0,4.715-3.87,9.465-10.25,9.465
	c-5.639,0-8.763-2.462-9.76-3.52C-117.262,12.432-117.395,12.23-117.05,11.611z M-91.525-15.181c0-0.453,0.342-0.863,0.823-0.863
	h17.959c0.479,0,0.821,0.41,0.821,0.863v4.981c0,0.453-0.343,0.864-0.821,0.864h-12.015v5.671h9.89c0.433,0,0.825,0.411,0.825,0.871
	v4.975c0,0.497-0.393,0.871-0.825,0.871h-9.89v6.169h12.015c0.479,0,0.821,0.411,0.821,0.856v4.989c0,0.447-0.343,0.857-0.821,0.857
	h-17.959c-0.48,0-0.823-0.41-0.823-0.857V-15.181z M-66.129-15.678c0-0.46,0.391-0.824,0.82-0.824h1.083l17.306,17.54h0.05v-16.218
	c0-0.453,0.343-0.863,0.821-0.863h5.209c0.43,0,0.82,0.41,0.82,0.863v30.76c0,0.447-0.391,0.819-0.82,0.819h-0.699
	c-0.13,0-0.478-0.136-0.563-0.236L-59.24-1.972h-0.037v17.04c0,0.446-0.343,0.857-0.821,0.857h-5.16
	c-0.443,0-0.834-0.411-0.834-0.857L-66.129-15.678z M-34.273,11.611l2.034-3.808c0.347-0.596,1.177-0.496,1.484-0.273
	c0.171,0.102,3.289,2.512,6.155,2.512c1.74,0,2.991-1.153,2.991-2.734c0-1.929-1.521-3.384-4.463-4.628
	c-3.726-1.541-8.418-4.601-8.418-10.086c0-4.527,3.343-9.096,10.025-9.096c4.511,0,7.981,2.416,9.28,3.423
	c0.515,0.323,0.429,1.145,0.256,1.454l-2.205,3.52c-0.307,0.511-1.091,0.921-1.484,0.597c-0.378-0.223-3.555-2.735-6.199-2.735
	c-1.562,0-2.725,1.094-2.725,2.326c0,1.692,1.299,2.972,4.719,4.434c3.384,1.412,8.767,4.211,8.767,10.417
	c0,4.715-3.862,9.465-10.236,9.465c-5.64,0-8.766-2.462-9.759-3.52C-34.49,12.432-34.616,12.23-34.273,11.611z M-12.655,14.757
	L0.916-16.002c0.136-0.273,0.442-0.5,0.75-0.5h0.428c0.306,0,0.602,0.227,0.736,0.5l13.583,30.759
	c0.257,0.584-0.084,1.169-0.749,1.169h-4.805c-0.785,0-1.128-0.247-1.521-1.131l-1.557-3.621H-4.025l-1.556,3.685
	c-0.222,0.547-0.7,1.067-1.57,1.067h-4.769C-12.57,15.925-12.912,15.341-12.655,14.757z M5.17,4.968L1.873-2.569H1.837l-3.262,7.537
	H5.17z M22.328-9.335h-6.205c-0.478,0-0.821-0.412-0.821-0.864v-4.981c0-0.453,0.344-0.863,0.821-0.863H28.36
	c0.479,0,0.821,0.41,0.821,0.863v5.846l0,0v24.403c0,0.446-0.392,0.857-0.82,0.857h-5.211c-0.43,0-0.821-0.411-0.821-0.857
	L22.328-9.335L22.328-9.335z M36.751-15.181c0-0.453,0.393-0.863,0.822-0.863h5.21c0.429,0,0.821,0.41,0.821,0.863v30.249
	c0,0.447-0.392,0.857-0.821,0.857h-5.21c-0.43,0-0.822-0.41-0.822-0.857V-15.181z M64.438-16.502c8.68,0,15.617,7.354,15.617,16.495
	c0,9.128-6.938,16.406-15.617,16.406c-8.681,0-15.571-7.277-15.571-16.406C48.866-9.149,55.757-16.502,64.438-16.502z M64.438,9.085
	c4.781,0,8.68-4.117,8.68-9.092c0-5.023-3.898-9.191-8.68-9.191c-4.721,0-8.632,4.167-8.632,9.191
	C55.807,4.968,59.717,9.085,64.438,9.085z M85.285-15.678c0-0.46,0.379-0.824,0.82-0.824h1.093l17.298,17.54h0.035v-16.218
	c0-0.453,0.343-0.863,0.821-0.863h5.226c0.415,0,0.82,0.41,0.82,0.863v30.76c0,0.447-0.405,0.819-0.82,0.819h-0.714
	c-0.108,0-0.45-0.136-0.55-0.236L92.188-1.972h-0.062v17.04c0,0.446-0.343,0.857-0.822,0.857h-5.16
	c-0.442,0-0.821-0.411-0.821-0.857L85.285-15.678z M114.986,14.757l13.57-30.759c0.136-0.273,0.417-0.5,0.723-0.5h0.441
	c0.307,0,0.614,0.227,0.749,0.5l13.571,30.759c0.27,0.584-0.097,1.169-0.746,1.169h-4.819c-0.788,0-1.13-0.247-1.509-1.131
	l-1.569-3.621h-11.794l-1.57,3.685c-0.208,0.547-0.687,1.067-1.545,1.067h-4.782C115.056,15.925,114.714,15.341,114.986,14.757z
	 M132.796,4.968l-3.283-7.537h-0.062l-3.249,7.537H132.796z M147.599-15.181c0-0.453,0.342-0.863,0.82-0.863h5.189
	c0.414,0,0.82,0.41,0.82,0.863V9.223h10.323c0.478,0,0.821,0.411,0.821,0.857v4.988c0,0.446-0.344,0.857-0.821,0.857h-16.333
	c-0.479,0-0.82-0.411-0.82-0.857V-15.181z M170.224-15.181c0-0.453,0.342-0.863,0.821-0.863h17.975c0.476,0,0.817,0.41,0.817,0.863
	v4.981c0,0.453-0.34,0.864-0.817,0.864h-12.028v6.58h9.883c0.439,0,0.844,0.41,0.844,0.871v4.988c0,0.447-0.404,0.857-0.844,0.857
	h-9.883v11.107c0,0.447-0.38,0.857-0.822,0.857h-5.124c-0.479,0-0.821-0.41-0.821-0.857V-15.181z M194.662-15.181
	c0-0.453,0.378-0.863,0.82-0.863h5.196c0.443,0,0.822,0.41,0.822,0.863v30.249c0,0.447-0.38,0.857-0.822,0.857h-5.196
	c-0.443,0-0.82-0.41-0.82-0.857V-15.181z M215.407-0.467l-8.752-14.303c-0.369-0.598,0-1.281,0.722-1.281h6.326
	c0.306,0,0.575,0.229,0.712,0.41l4.99,8.494h0.035l5.073-8.494c0.089-0.181,0.396-0.41,0.703-0.41h6.324
	c0.75,0,1.129,0.683,0.75,1.281l-8.816,14.303l9.105,15.124c0.396,0.647,0,1.269-0.693,1.269h-6.021
	c-0.271,0-0.613-0.173-0.748-0.41l-5.677-9.229h-0.097l-5.542,9.229c-0.135,0.199-0.379,0.41-0.724,0.41h-6.044
	c-0.724,0-1.129-0.686-0.724-1.269L215.407-0.467z"/>
<g>
	<path fill="#FFFFFF" d="M17.133,22.352h7.416v1.058h-6.254v3.517h5.589v1.059h-5.589v3.588h6.323v1.033h-7.484V22.352z"/>
	<path fill="#FFFFFF" d="M26.275,31.129l0.718-0.853c1.062,0.959,2.101,1.439,3.52,1.439c1.37,0,2.276-0.722,2.276-1.743v-0.007
		c0-0.956-0.513-1.502-2.666-1.975c-2.358-0.514-3.437-1.268-3.437-2.944v-0.032c0-1.608,1.419-2.804,3.367-2.804
		c1.502,0,2.563,0.441,3.605,1.264l-0.682,0.891c-0.942-0.783-1.899-1.099-2.957-1.099c-1.333,0-2.173,0.722-2.173,1.645v0.033
		c0,0.959,0.529,1.504,2.785,1.984c2.276,0.509,3.334,1.332,3.334,2.903v0.034c0,1.746-1.468,2.903-3.502,2.903
		C28.839,32.77,27.506,32.225,26.275,31.129z"/>
	<path fill="#FFFFFF" d="M38.82,23.439h-3.451v-1.088h8.064v1.088h-3.45v9.165H38.82L38.82,23.439L38.82,23.439z"/>
	<path fill="#FFFFFF" d="M43.825,31.067h1.336v1.537h-1.336V31.067z"/>
	<path fill="#FFFFFF" d="M52.131,22.352h1.164l3.741,5.603l3.741-5.603h1.165v10.253h-1.161V24.3l-3.728,5.5h-0.065l-3.728-5.471
		v8.275h-1.128V22.352z"/>
	<path fill="#FFFFFF" d="M64.847,22.352h1.165l3.754,5.603l3.726-5.603h1.165v10.253h-1.16V24.3l-3.728,5.5h-0.067l-3.727-5.471
		v8.275h-1.128V22.352z"/>
	<path fill="#FFFFFF" d="M76.677,22.352h1.296l3.654,8.847l3.659-8.847h1.233l-4.409,10.322h-1.025L76.677,22.352z"/>
	<path fill="#FFFFFF" d="M88.667,22.352h1.134v10.253h-1.134V22.352z"/>
	<path fill="#FFFFFF" d="M92.912,22.352h1.161v10.253h-1.161V22.352z"/>
	<path fill="#FFFFFF" d="M97.183,22.352h1.16v10.253h-1.16V22.352z"/>
</g>
</svg>
